<svg width="192" height="192" viewBox="0 0 96 96" fill="none" xmlns="http://www.w3.org/2000/svg" role="img" aria-labelledby="title desc">
  <title id="title">ConnectBloom mark</title>
  <desc id="desc">Yellow, cyan, and blue flower-like connection symbol.</desc>
  <rect width="96" height="96" rx="22" fill="white"/>
  <rect x="2" y="2" width="92" height="92" rx="20" stroke="#E2E8F0" stroke-width="2"/>
  <defs>
    <linearGradient id="s" x1="48" x2="48" y1="6" y2="90" gradientUnits="userSpaceOnUse"><stop stop-color="#FFD600"/><stop offset=".43" stop-color="#00D4CE"/><stop offset="1" stop-color="#0057FF"/></linearGradient>
    <linearGradient id="f" x1="48" x2="48" y1="24" y2="86" gradientUnits="userSpaceOnUse"><stop stop-color="#FFD600"/><stop offset=".48" stop-color="#00D4CE"/><stop offset="1" stop-color="#0057FF"/></linearGradient>
  </defs>
  <g stroke="url(#s)" stroke-linecap="round" stroke-linejoin="round" stroke-width="7.5">
    <path d="M48 43C38 31 38 19 48 12C58 19 58 31 48 43Z"/><path d="M42 49C25 48 16 39 20 27C32 24 43 30 48 43"/><path d="M54 49C71 48 80 39 76 27C64 24 53 30 48 43"/><path d="M43 53C31 66 18 66 12 55C17 43 29 41 42 49"/><path d="M53 53C65 66 78 66 84 55C79 43 67 41 54 49"/><path d="M48 56C60 68 59 82 48 88C37 82 36 68 48 56Z"/>
  </g>
  <g fill="url(#f)"><circle cx="28" cy="42" r="5.8"/><circle cx="72" cy="42" r="5.8"/><circle cx="37" cy="25" r="5.8"/><circle cx="59" cy="25" r="5.8"/></g>
  <path d="M48 43C42 50 35 53 26 53C35 57 42 57 48 52C54 57 61 57 70 53C61 53 54 50 48 43Z" fill="url(#f)" opacity=".95"/>
</svg>
