<svg width="1200" height="630" viewBox="0 0 1200 630" fill="none" xmlns="http://www.w3.org/2000/svg" role="img" aria-labelledby="title desc">
  <title id="title">ConnectBloom</title>
  <desc id="desc">ConnectBloom brand image with the copy 紹介から、共創がひらく。</desc>
  <rect width="1200" height="630" fill="#FBFFF9"/>
  <circle cx="156" cy="142" r="170" fill="#FDEBF0"/>
  <circle cx="1042" cy="104" r="210" fill="#E4F8EE"/>
  <circle cx="910" cy="560" r="230" fill="#FDEBF0" opacity="0.75"/>
  <path d="M196 392C196 276.02 290.02 182 406 182H794C909.98 182 1004 276.02 1004 392V398C1004 470.902 944.902 530 872 530H328C255.098 530 196 470.902 196 398V392Z" fill="white" fill-opacity="0.78"/>
  <path d="M600 134C632.8 134 653.2 166.6 639.4 196.1C670.3 185.7 700.7 210.6 696.4 243C692 275.4 657.5 292.4 630.8 273.7C632.3 306.3 600 327.4 571.9 310.7C543.8 294 545.1 255.6 574 240.9C543.1 230.5 533.8 193.2 556.3 169.5C567.8 157.4 583.5 134 600 134Z" fill="#58B878"/>
  <circle cx="600" cy="232" r="34" fill="#F08AA4"/>
  <text x="600" y="392" text-anchor="middle" font-family="Inter, 'Noto Sans JP', Arial, sans-serif" font-size="76" font-weight="900" letter-spacing="-2" fill="#2F3A34">ConnectBloom</text>
  <text x="600" y="462" text-anchor="middle" font-family="Inter, 'Noto Sans JP', Arial, sans-serif" font-size="38" font-weight="800" fill="#2F7A50">紹介から、共創がひらく。</text>
  <text x="600" y="516" text-anchor="middle" font-family="Inter, 'Noto Sans JP', Arial, sans-serif" font-size="24" font-weight="700" fill="#7A8A80">Invite-only Connect SNS</text>
</svg>
